<?xml version="1.0" encoding="UTF-8" standalone="no"?>
<!DOCTYPE svg PUBLIC "-//W3C//DTD SVG 1.1//EN" "http://www.w3.org/Graphics/SVG/1.1/DTD/svg11.dtd">
<svg width="100%" height="100%" viewBox="0 0 256 256" version="1.1" xmlns="http://www.w3.org/2000/svg" xmlns:xlink="http://www.w3.org/1999/xlink" xml:space="preserve" xmlns:serif="http://www.serif.com/" style="fill-rule:evenodd;clip-rule:evenodd;stroke-linejoin:round;stroke-miterlimit:2;">
    <g transform="matrix(4.73625,0,0,4.73625,-279.429,-303.346)">
        <g transform="matrix(50,0,0,50,66.2381,101.588)">
            <path d="M0.264,-0.077C0.28,-0.077 0.294,-0.078 0.307,-0.081C0.321,-0.083 0.334,-0.086 0.347,-0.09L0.347,-0.009C0.333,-0.004 0.317,0 0.298,0.004C0.28,0.008 0.259,0.01 0.237,0.01C0.206,0.01 0.18,0.005 0.157,-0.006C0.135,-0.017 0.118,-0.035 0.105,-0.06C0.093,-0.085 0.087,-0.118 0.087,-0.16L0.087,-0.457L0.018,-0.457L0.018,-0.505L0.094,-0.543L0.129,-0.661L0.196,-0.661L0.196,-0.54L0.339,-0.54L0.339,-0.457L0.196,-0.457L0.196,-0.163C0.196,-0.134 0.202,-0.112 0.214,-0.098C0.226,-0.084 0.242,-0.077 0.264,-0.077ZM0.754,-0.54L0.754,-0.469L0.539,-0.232C0.596,-0.228 0.641,-0.216 0.675,-0.196C0.71,-0.176 0.734,-0.149 0.75,-0.116C0.766,-0.083 0.773,-0.044 0.773,-0C0.773,0.046 0.763,0.087 0.743,0.124C0.723,0.16 0.694,0.189 0.655,0.209C0.616,0.23 0.568,0.24 0.511,0.24C0.475,0.24 0.442,0.237 0.41,0.231C0.378,0.225 0.349,0.216 0.321,0.204L0.321,0.109C0.352,0.124 0.383,0.135 0.414,0.142C0.446,0.149 0.476,0.152 0.504,0.152C0.542,0.152 0.572,0.145 0.596,0.132C0.619,0.118 0.636,0.099 0.647,0.075C0.657,0.052 0.663,0.025 0.663,-0.004C0.663,-0.035 0.657,-0.061 0.644,-0.083C0.632,-0.104 0.612,-0.121 0.584,-0.133C0.556,-0.146 0.518,-0.152 0.471,-0.152L0.414,-0.152L0.414,-0.229L0.616,-0.457L0.339,-0.457L0.339,-0.54L0.754,-0.54Z" style="fill-rule:nonzero;"/>
        </g>
    </g>
</svg>
