<?xml version="1.0" encoding="UTF-8" standalone="no"?>
<!DOCTYPE svg PUBLIC "-//W3C//DTD SVG 1.1//EN" "http://www.w3.org/Graphics/SVG/1.1/DTD/svg11.dtd">
<svg width="100%" height="100%" viewBox="0 0 2481 2481" version="1.1" xmlns="http://www.w3.org/2000/svg" xmlns:xlink="http://www.w3.org/1999/xlink" xml:space="preserve" xmlns:serif="http://www.serif.com/" style="fill-rule:evenodd;clip-rule:evenodd;stroke-linecap:round;stroke-linejoin:round;stroke-miterlimit:1.5;">
    <g id="shadow" transform="matrix(1,0,0,1,-1.25165,-619.321)">
        <g transform="matrix(0.709573,-0.0164104,0.0231209,0.999733,119.749,210.82)">
            <ellipse cx="1329.07" cy="2107.22" rx="856.243" ry="164.459" style="fill:rgb(140,140,140);"/>
        </g>
        <g transform="matrix(0.638805,-0.0147737,0.0244376,1.05666,757.589,-181.419)">
            <ellipse cx="1329.07" cy="2107.22" rx="856.243" ry="164.459" style="fill:rgb(140,140,140);"/>
        </g>
        <g transform="matrix(0.244093,-0.00564516,0.0123701,0.534875,184.146,1531.03)">
            <ellipse cx="1329.07" cy="2107.22" rx="856.243" ry="164.459" style="fill:rgb(140,140,140);"/>
        </g>
    </g>
    <g id="left-legs" serif:id="left legs" transform="matrix(1,0,0,1,-1.25165,-619.321)">
        <g transform="matrix(-0.261789,-0.613798,-0.655823,0.279713,2850.87,2187.07)">
            <path d="M1653.3,1753.94C1653.3,1753.94 1798.23,1627.57 1874.31,1623.73C1977.46,1618.51 2048.32,1632.14 2109.56,1739.54C2140.56,1793.91 2156.1,1859.89 2106.81,1930.58C2057.51,2001.26 2044.36,1975.55 2030.84,1976.6C2017.32,1977.64 2011.7,1951.26 2044.97,1883.21C2078.25,1815.15 2029.78,1754.5 2015.33,1739.54C2000.88,1724.59 1890.01,1686.94 1807.35,1762.44L1653.3,1753.94Z" style="fill:rgb(185,59,59);stroke:black;stroke-width:24.14px;"/>
        </g>
        <g transform="matrix(-0.54452,-0.438611,-0.529684,0.657584,3141.55,1212.38)">
            <path d="M1653.3,1753.94C1653.3,1753.94 1798.23,1627.57 1874.31,1623.73C1977.46,1618.51 2048.32,1632.14 2109.56,1739.54C2140.56,1793.91 2156.1,1859.89 2106.81,1930.58C2057.51,2001.26 2044.36,1975.55 2030.84,1976.6C2017.32,1977.64 2011.7,1951.26 2044.97,1883.21C2078.25,1815.15 2029.78,1754.5 2015.33,1739.54C2000.88,1724.59 1890.01,1686.94 1807.35,1762.44L1653.3,1753.94Z" style="fill:rgb(185,59,59);stroke:black;stroke-width:21.5px;"/>
        </g>
    </g>
    <g id="body" transform="matrix(1,0,0,1,-1.25165,-619.321)">
        <path d="M1181.15,1590.59C1181.15,1590.59 1185.72,1223.11 1459.91,1097.58C1734.1,972.058 1986.93,973.304 2133.97,1111.93C2133.97,1111.93 2279.06,1278.99 2142.47,1550.01C2005.88,1821.03 1463.54,1847.54 1400.92,1942.18C1400.92,1942.18 919.513,1972.74 1181.15,1590.59Z" style="fill:rgb(89,23,23);"/>
        <clipPath id="_clip1">
            <path d="M1181.15,1590.59C1181.15,1590.59 1185.72,1223.11 1459.91,1097.58C1734.1,972.058 1986.93,973.304 2133.97,1111.93C2133.97,1111.93 2279.06,1278.99 2142.47,1550.01C2005.88,1821.03 1463.54,1847.54 1400.92,1942.18C1400.92,1942.18 919.513,1972.74 1181.15,1590.59Z"/>
        </clipPath>
        <g clip-path="url(#_clip1)">
            <g transform="matrix(0.953407,-0.37753,0.368166,0.92976,-383.099,715.638)">
                <ellipse cx="1464.5" cy="1368.32" rx="680.833" ry="431.333" style="fill:rgb(185,59,59);"/>
            </g>
            <g>
                <g transform="matrix(0.912424,0.409247,-0.409247,0.912424,585.841,84.6652)">
                    <ellipse cx="1189.05" cy="906.802" rx="51.107" ry="90.322" style="fill:rgb(89,23,23);"/>
                </g>
                <g transform="matrix(0.738402,0.677372,-0.727521,0.79307,1185.84,-317.21)">
                    <ellipse cx="1189.05" cy="906.802" rx="51.107" ry="90.322" style="fill:rgb(89,23,23);"/>
                </g>
                <g transform="matrix(0.344363,0.76576,-0.981537,0.441398,2083.9,-243.279)">
                    <ellipse cx="1189.05" cy="906.802" rx="51.107" ry="90.322" style="fill:rgb(89,23,23);"/>
                </g>
            </g>
            <g transform="matrix(1,0,0,1,-23.5229,31.6211)">
                <ellipse cx="1556.14" cy="1833.51" rx="108.009" ry="109.252" style="fill:rgb(89,23,23);"/>
            </g>
            <g transform="matrix(1,0,0,1,168.972,-53.2687)">
                <ellipse cx="1556.14" cy="1833.51" rx="108.009" ry="109.252" style="fill:rgb(89,23,23);"/>
            </g>
            <g transform="matrix(1,0,0,1,312.47,-136.108)">
                <ellipse cx="1556.14" cy="1833.51" rx="108.009" ry="109.252" style="fill:rgb(89,23,23);"/>
            </g>
            <g transform="matrix(1.53521,0,0,2.49067,-1132.49,-2708.14)">
                <ellipse cx="1556.14" cy="1833.51" rx="108.009" ry="109.252" style="fill:rgb(89,23,23);"/>
            </g>
        </g>
        <path d="M1181.15,1590.59C1181.15,1590.59 1185.72,1223.11 1459.91,1097.58C1734.1,972.058 1986.93,973.304 2133.97,1111.93C2133.97,1111.93 2279.06,1278.99 2142.47,1550.01C2005.88,1821.03 1463.54,1847.54 1400.92,1942.18C1400.92,1942.18 919.513,1972.74 1181.15,1590.59Z" style="fill:none;stroke:black;stroke-width:16.67px;"/>
    </g>
    <g id="arms" transform="matrix(1,0,0,1,-1.25165,-619.321)">
        <path d="M1313.49,2016.35C1313.49,2016.35 1570.01,1999.13 1515.12,2098.18C1460.23,2197.22 1104.28,2101.76 1140.53,2295.72C1140.53,2295.72 1216.56,2384.93 1284.96,2259.19C1284.96,2259.19 1469.75,2231.26 1582.29,2179.71C1582.29,2179.71 1659.65,2167.03 1664.1,2072.13C1668.55,1977.23 1384.59,1926.28 1333.94,1936.07C1283.29,1945.87 1313.49,2016.35 1313.49,2016.35Z" style="fill:rgb(185,59,59);stroke:black;stroke-width:16.67px;"/>
        <g transform="matrix(1.38674,2.22045e-16,0,1,-340.664,-1.13687e-13)">
            <path d="M848.465,1965.17C848.465,1965.17 901.36,2021.36 871.982,2032.8C842.604,2044.24 716.985,2027.81 560.932,2130.65C404.879,2233.48 439.669,2090.16 527.594,2051.83C615.519,2013.5 675.407,1966.76 848.465,1965.17Z" style="fill:rgb(185,59,59);stroke:black;stroke-width:13.79px;"/>
        </g>
    </g>
    <g id="head" transform="matrix(0.928918,0.306489,-0.349212,1.0584,656.058,-1077.44)">
        <ellipse cx="1133.37" cy="1817.8" rx="312.058" ry="318.084" style="fill:rgb(89,23,23);"/>
        <clipPath id="_clip2">
            <ellipse cx="1133.37" cy="1817.8" rx="312.058" ry="318.084"/>
        </clipPath>
        <g clip-path="url(#_clip2)">
            <g transform="matrix(2.46903,-0.714974,0.881372,2.34449,-1742.35,-1790.65)">
                <ellipse cx="524.11" cy="1689.89" rx="142.708" ry="133.819" style="fill:rgb(185,59,59);"/>
            </g>
        </g>
        <ellipse cx="1133.37" cy="1817.8" rx="312.058" ry="318.084" style="fill:none;stroke:black;stroke-width:15.89px;"/>
    </g>
    <g id="eyes" transform="matrix(1,0,0,1,-1.25165,-619.321)">
        <g transform="matrix(0.992472,0.122469,-0.122469,0.992472,213.77,-143.772)">
            <ellipse cx="930.646" cy="1810.05" rx="78.036" ry="148.424" style="fill:white;stroke:black;stroke-width:16.67px;"/>
        </g>
        <g transform="matrix(1.18102,0.145735,-0.134005,1.08596,289.302,-320.681)">
            <ellipse cx="930.646" cy="1810.05" rx="78.036" ry="148.424" style="fill:rgb(242,242,242);stroke:black;stroke-width:14.58px;"/>
        </g>
        <g transform="matrix(0.597442,0.073723,-0.0751286,0.608833,520.337,628.079)">
            <ellipse cx="930.646" cy="1810.05" rx="78.036" ry="148.424" style="stroke:black;stroke-width:27.42px;"/>
        </g>
        <g transform="matrix(0.597442,0.073723,-0.0751286,0.608833,682.483,642.589)">
            <ellipse cx="930.646" cy="1810.05" rx="78.036" ry="148.424" style="stroke:black;stroke-width:27.42px;"/>
        </g>
    </g>
    <g id="right-legs" serif:id="right legs" transform="matrix(1,0,0,1,-1.25165,-619.321)">
        <g transform="matrix(1.0615,-0.325788,0.293404,0.955988,-628.967,680.397)">
            <path d="M1653.3,1753.94C1653.3,1753.94 1798.23,1627.57 1874.31,1623.73C1977.46,1618.51 2048.32,1632.14 2109.56,1739.54C2140.56,1793.91 2156.1,1859.89 2106.81,1930.58C2057.51,2001.26 2048.73,2093.57 2029.99,2084.36C2017.82,2078.38 2011.7,1951.26 2044.97,1883.21C2078.25,1815.15 2029.78,1754.5 2015.33,1739.54C2000.88,1724.59 1890.01,1686.94 1807.35,1762.44L1653.3,1753.94Z" style="fill:rgb(185,59,59);stroke:black;stroke-width:15.77px;"/>
        </g>
        <g transform="matrix(0.968501,-0.249011,0.249011,0.968501,-484.303,564.496)">
            <path d="M1653.3,1753.94C1653.3,1753.94 1798.23,1627.57 1874.31,1623.73C1977.46,1618.51 2048.32,1632.14 2109.56,1739.54C2140.56,1793.91 2156.1,1859.89 2106.81,1930.58C2057.51,2001.26 2078.64,2103.39 2059.9,2094.18C2047.73,2088.2 2011.7,1951.26 2044.97,1883.21C2078.25,1815.15 2029.78,1754.5 2015.33,1739.54C2000.88,1724.59 1890.01,1686.94 1807.35,1762.44L1653.3,1753.94Z" style="fill:rgb(185,59,59);stroke:black;stroke-width:16.67px;"/>
        </g>
        <g transform="matrix(0.70566,0.152604,-0.211371,0.977406,707.326,-148.308)">
            <path d="M1601.16,1836.28C1562.06,1769.9 1721.3,1656.2 1874.31,1623.73C1975.34,1602.28 2048.32,1632.14 2109.56,1739.54C2140.56,1793.91 2156.1,1859.89 2106.81,1930.58C2057.51,2001.26 2048.73,2093.57 2029.99,2084.36C2017.82,2078.38 2011.7,1951.26 2044.97,1883.21C2078.25,1815.15 2029.78,1754.5 2015.33,1739.54C2000.88,1724.59 1890.01,1686.94 1807.35,1762.44C1807.35,1762.44 1746.88,1832.77 1695.94,1844.75C1643.88,1856.99 1617.03,1863.22 1601.16,1836.28Z" style="fill:rgb(185,59,59);stroke:black;stroke-width:19.11px;"/>
        </g>
    </g>
    <g id="bottom-cube" serif:id="bottom cube" transform="matrix(-1.01687,0,0,0.925915,2610.15,468.255)">
        <path id="front-face" serif:id="front face" d="M1895.99,1532.08L1900.99,1751.76L2101.84,1769.09L2101.84,1528.08L1895.99,1532.08Z" style="fill:rgb(139,213,245);stroke:black;stroke-width:6.43px;"/>
        <g id="a" transform="matrix(1,0,0,1,325.54,4.54747e-13)">
            <path d="M1776.3,1528.08L1776.3,1769.09L1827.17,1656.27L1829.97,1482.98L1776.3,1528.08Z" style="fill:rgb(79,134,157);stroke:black;stroke-width:6.43px;"/>
        </g>
        <g id="a1" serif:id="a" transform="matrix(3.46761,-1.13442,0.910509,-0.00948676,-5673.76,3552.24)">
            <path d="M1771.21,1568.24L1768.83,1803.37L1809.8,1706.27L1811.07,1554.94L1771.21,1568.24Z" style="fill:rgb(79,134,157);stroke:black;stroke-width:1.93px;"/>
        </g>
        <g id="frame" transform="matrix(0.997239,0,0,1.00568,5.7342,-9.91693)">
            <path d="M1907.62,1545.76L1912.49,1740.1L2085.67,1751.74L2086.89,1544.29L1907.62,1545.76Z" style="fill:none;stroke:black;stroke-width:6.42px;"/>
        </g>
    </g>
    <g id="middle-cube" serif:id="middle cube" transform="matrix(-0.904558,0,0,0.823645,2330.44,420.537)">
        <path id="front-face1" serif:id="front face" d="M1870.65,1526.01L1875.57,1776.27L2101.84,1765.58L2100.8,1521.61L1870.65,1526.01ZM2100.8,1521.61L2101.84,1765.58L2100.8,1521.61Z" style="fill:rgb(139,213,245);stroke:black;stroke-width:7.23px;"/>
        <g id="side-face" serif:id="side face" transform="matrix(-0.408699,-0.569528,0,1,2596.62,1011.47)">
            <path d="M1776.3,1524.88L1764.13,1769.52L1813.55,1758.72L1827.08,1546.06L1776.3,1524.88Z" style="fill:rgb(79,134,157);stroke:black;stroke-width:17.26px;"/>
        </g>
        <g id="side-face1" serif:id="side face" transform="matrix(-0.408699,-0.451017,-0.910539,-0.00481916,4207.84,2325.79)">
            <path d="M1766.77,1523.17L1747.21,1782.58L1774.25,1789.66L1789.75,1590.96L1766.77,1523.17Z" style="fill:rgb(79,134,157);stroke:black;stroke-width:7.07px;"/>
        </g>
        <g id="frame1" serif:id="frame" transform="matrix(0.997239,0,0,1.00568,5.7342,-9.91693)">
            <path d="M1883.06,1545.28L1887.87,1762.53L2091.32,1753.06L2091.32,1538.83L1883.06,1545.28Z" style="fill:none;stroke:black;stroke-width:7.22px;"/>
        </g>
    </g>
    <g id="top-cube" serif:id="top cube" transform="matrix(-0.930134,0,0,0.871726,2244.49,9.40246)">
        <path id="front-face2" serif:id="front face" d="M1862.17,1513.12L1870.65,1784.76L2075.24,1784.76L2075.24,1530.84L1862.17,1513.12Z" style="fill:rgb(139,213,245);stroke:black;stroke-width:6.93px;"/>
        <g id="side-face2" serif:id="side face" transform="matrix(-0.607479,0.3163,0,1,2944.03,-559.497)">
            <path d="M1776.3,1513.73L1766.95,1785.37L1820.74,1766.9L1828.72,1530.08L1776.3,1513.73Z" style="fill:rgb(79,134,157);stroke:black;stroke-width:6.91px;"/>
        </g>
        <g id="frame2" serif:id="frame" transform="matrix(0.997239,0,0,1.00568,5.7342,-9.91693)">
            <path d="M1879.43,1530.78L1884.68,1768.96L2057.52,1768.96L2060.81,1541.84L1879.43,1530.78Z" style="fill:none;stroke:black;stroke-width:6.93px;"/>
        </g>
    </g>
    <g transform="matrix(1.42973,-0.027971,-5.93125e-20,1.41263,-2388.32,-1863.2)">
        <path d="M1991.75,2412.74C1990.2,2414.92 1988.42,2416.93 1986.45,2418.75C1986.61,2418.88 1986.73,2418.98 1986.86,2419.09C1990.28,2421.88 1992.86,2425.57 1994.31,2429.74C1994.7,2430.76 1994.87,2431.84 1994.8,2432.93C1994.78,2433.21 1994.72,2433.48 1994.63,2433.74C1994.4,2434.52 1993.62,2435 1992.83,2434.86C1992.31,2434.79 1991.81,2434.64 1991.33,2434.41C1990.61,2434.06 1989.93,2433.63 1989.3,2433.13C1985.99,2430.4 1983.47,2426.83 1982.02,2422.8C1981.98,2422.68 1981.93,2422.57 1981.86,2422.38C1980.09,2423.55 1978.24,2424.58 1976.32,2425.48C1974.42,2426.35 1972.44,2427.07 1970.42,2427.63C1968.37,2428.19 1966.28,2428.59 1964.16,2428.82C1964.2,2429.01 1964.22,2429.16 1964.26,2429.3C1964.93,2431.93 1965.15,2434.66 1964.91,2437.36C1964.83,2439.05 1964.5,2440.73 1963.94,2442.33C1963.67,2442.99 1963.36,2443.64 1963.01,2444.27C1962.87,2444.51 1962.7,2444.73 1962.5,2444.92C1961.62,2445.83 1960.57,2445.84 1959.71,2444.91C1959.37,2444.53 1959.08,2444.11 1958.84,2443.66C1958.16,2442.39 1957.81,2441 1957.56,2439.58C1957.24,2437.65 1957.14,2435.68 1957.26,2433.73C1957.33,2432.29 1957.54,2430.87 1957.9,2429.48C1957.93,2429.37 1957.96,2429.25 1957.98,2429.13C1957.99,2429.1 1957.97,2429.06 1957.94,2428.96C1951.61,2428.61 1945.46,2426.71 1940.03,2423.43C1939.94,2423.64 1939.87,2423.8 1939.79,2423.98C1938.27,2427.53 1935.92,2430.67 1932.95,2433.14C1932.17,2433.81 1931.26,2434.33 1930.29,2434.68C1929.83,2434.86 1929.33,2434.91 1928.85,2434.83C1928.3,2434.74 1927.85,2434.36 1927.65,2433.84C1927.34,2433.08 1927.39,2432.29 1927.5,2431.51C1927.68,2430.42 1928,2429.36 1928.45,2428.36C1929.81,2425.2 1931.81,2422.36 1934.32,2420.01C1934.42,2419.91 1934.52,2419.82 1934.62,2419.72C1934.66,2419.67 1934.68,2419.63 1934.7,2419.58C1932.34,2417.52 1930.23,2415.2 1928.41,2412.65C1928.62,2412.63 1928.77,2412.61 1928.92,2412.61C1931.24,2412.61 1933.57,2412.61 1935.89,2412.6C1936.21,2412.59 1936.51,2412.72 1936.71,2412.96C1939.24,2415.56 1942.19,2417.72 1945.43,2419.35C1948.86,2421.11 1952.59,2422.22 1956.42,2422.62C1966.85,2423.63 1975.81,2420.47 1983.32,2413.14C1983.66,2412.77 1984.15,2412.57 1984.65,2412.6C1986.82,2412.62 1988.99,2412.61 1991.15,2412.61L1991.71,2412.61L1991.75,2412.74ZM1982.07,2379.52C1982.68,2379.52 1983.28,2379.57 1983.86,2379.51C1984.52,2379.45 1985,2379.69 1985.48,2380.13C1988.27,2382.7 1991.09,2385.24 1993.9,2387.79C1994.04,2387.92 1994.18,2388.05 1994.37,2388.21C1994.54,2388.06 1994.69,2387.93 1994.85,2387.8C1997.74,2385.16 2000.63,2382.52 2003.53,2379.88C2003.77,2379.63 2004.11,2379.5 2004.46,2379.51C2005.17,2379.54 2005.88,2379.52 2006.63,2379.52L2006.63,2402.83C2006.25,2402.94 2001.13,2402.97 2000.52,2402.85L2000.52,2391.04L2000.4,2390.99C1998.41,2392.8 1996.41,2394.62 1994.38,2396.48C1992.34,2394.64 1990.32,2392.82 1988.3,2391.01L1988.19,2391.05C1988.18,2392.03 1988.18,2393.02 1988.18,2394.01L1988.18,2402.89L1982.12,2402.89C1982,2402.49 1981.95,2380.84 1982.07,2379.52ZM1926.08,2379.55L1932.11,2379.55C1932.23,2379.94 1932.25,2402.33 1932.13,2402.89L1926.09,2402.89C1926.06,2401.41 1926.08,2399.93 1926.08,2398.45C1926.08,2396.99 1926.08,2395.53 1926.08,2394.02L1918.6,2394.02L1918.6,2402.81C1918.15,2402.95 1913,2402.96 1912.49,2402.84L1912.49,2379.55L1918.58,2379.55L1918.58,2387.78C1919.02,2387.91 1925.42,2387.93 1926.07,2387.81C1926.07,2387.15 1926.08,2386.47 1926.08,2385.8L1926.08,2379.55ZM1960.73,2402.89C1960.62,2402.27 1960.64,2379.98 1960.75,2379.55L1966.76,2379.55L1966.76,2396.75C1967.02,2396.77 1967.22,2396.79 1967.42,2396.79C1969.8,2396.79 1972.18,2396.79 1974.56,2396.79L1975.2,2396.79L1975.2,2402.89L1960.73,2402.89ZM1939.34,2402.88L1939.34,2379.62C1939.69,2379.5 1952.95,2379.46 1953.82,2379.57L1953.82,2384.53C1953.62,2384.55 1953.42,2384.57 1953.22,2384.57C1950.86,2384.58 1948.5,2384.58 1946.14,2384.58L1945.48,2384.58L1945.48,2388.43L1952.86,2388.43L1952.86,2393.56L1945.55,2393.56C1945.43,2394 1945.39,2397.06 1945.49,2397.91C1945.68,2397.92 1945.88,2397.94 1946.08,2397.95C1948.44,2397.95 1950.8,2397.95 1953.16,2397.95L1953.82,2397.95L1953.82,2402.88L1939.34,2402.88ZM1934.68,2362.57C1934.56,2362.45 1934.42,2362.32 1934.28,2362.19C1931.49,2359.51 1929.33,2356.41 1928.03,2352.75C1927.66,2351.72 1927.38,2350.68 1927.43,2349.57C1927.44,2349.47 1927.44,2349.36 1927.45,2349.26C1927.54,2347.83 1928.5,2347.11 1929.89,2347.45C1930.33,2347.56 1930.76,2347.72 1931.16,2347.93C1932.68,2348.7 1933.93,2349.83 1935.07,2351.07C1937.1,2353.23 1938.73,2355.73 1939.87,2358.46C1939.9,2358.53 1939.93,2358.59 1939.96,2358.65C1939.98,2358.68 1940.01,2358.7 1940.08,2358.77C1945.52,2355.51 1951.67,2353.62 1958.01,2353.27C1957.97,2353.07 1957.94,2352.93 1957.91,2352.78C1957.26,2350.11 1957.06,2347.35 1957.32,2344.61C1957.43,2342.97 1957.76,2341.35 1958.3,2339.79C1958.56,2338.97 1958.97,2338.21 1959.51,2337.54C1959.72,2337.3 1959.95,2337.09 1960.21,2336.92C1960.74,2336.54 1961.45,2336.54 1961.99,2336.91C1962.54,2337.28 1962.99,2337.79 1963.28,2338.39C1963.83,2339.41 1964.22,2340.51 1964.45,2341.64C1964.96,2344.04 1965.12,2346.5 1964.92,2348.94C1964.82,2350.43 1964.56,2351.91 1964.14,2353.35C1965.72,2353.64 1967.29,2353.86 1968.82,2354.23C1970.35,2354.58 1971.86,2355.03 1973.34,2355.55C1974.84,2356.1 1976.3,2356.73 1977.72,2357.45C1979.12,2358.15 1980.46,2358.99 1981.86,2359.78C1981.9,2359.68 1981.97,2359.57 1982.01,2359.45C1983.47,2355.41 1985.99,2351.84 1989.29,2349.1C1990.06,2348.44 1990.95,2347.93 1991.91,2347.58C1992.17,2347.49 1992.44,2347.43 1992.72,2347.39C1994.11,2347.24 1994.69,2348.11 1994.79,2349.15C1994.87,2349.92 1994.81,2350.69 1994.62,2351.44C1994.11,2353.37 1993.31,2355.21 1992.25,2356.9C1990.74,2359.33 1988.96,2361.51 1986.69,2363.28C1986.63,2363.33 1986.57,2363.39 1986.46,2363.5C1988.67,2365.54 1990.64,2367.83 1992.34,2370.33C1992.22,2370.36 1992.09,2370.38 1991.96,2370.39C1989.62,2370.4 1987.28,2370.39 1984.93,2370.4C1984.65,2370.4 1984.39,2370.26 1984.23,2370.03C1979.12,2364.45 1972.22,2360.8 1964.73,2359.73C1962.51,2359.41 1960.26,2359.33 1958.03,2359.47C1951.36,2359.88 1944.98,2362.34 1939.77,2366.51C1938.42,2367.57 1937.17,2368.75 1936.02,2370.02C1935.81,2370.27 1935.49,2370.42 1935.16,2370.41C1932.92,2370.39 1930.68,2370.4 1928.44,2370.4L1927.97,2370.4C1928.11,2369.87 1929.48,2367.98 1931.04,2366.29C1932.2,2365.04 1933.43,2363.85 1934.68,2362.57Z" style="fill:rgb(79,134,157);fill-rule:nonzero;"/>
    </g>
    <g transform="matrix(0.956333,-0.0276051,2.66687e-33,0.956333,-1239.17,-31.8989)">
        <g transform="matrix(0.39857,0.00959721,0,0.39857,1794.9,2055.14)">
            <path d="M472,228C472,228 454,211 417,217C413,188 382,171 382,171C382,171 353,206 374,245C368,248 358,252 343,252L68,252C63,271 63,397 201,397C300,397 374,351 409,267C461,271 472,228 472,228" style="fill:rgb(79,134,157);fill-rule:nonzero;"/>
        </g>
        <g transform="matrix(1,0.0187264,0,1,15.715,-32.8326)">
            <path d="M1848.96,2134.9L1830.95,2134.9L1830.95,2152.91L1848.96,2152.91L1848.96,2134.9ZM1871.97,2134.9L1853.95,2134.9L1853.95,2152.91L1871.97,2152.91L1871.97,2134.9ZM1895.59,2134.9L1877.57,2134.9L1877.57,2152.91L1895.59,2152.91L1895.59,2134.9ZM1886.58,2112.8L1868.56,2112.8L1868.56,2130.81L1886.58,2130.81L1886.58,2112.8ZM1862.96,2112.8L1844.94,2112.8L1844.94,2130.81L1862.96,2130.81L1862.96,2112.8Z" style="fill:rgb(79,134,157);"/>
        </g>
    </g>
    <g id="path10351" transform="matrix(1.02006,0,0,1.1043,437.265,1677.01)">
        <path d="M158.069,106.529C157.867,106.529 157.665,106.529 157.665,106.327C157.665,106.125 157.261,106.125 156.857,106.125C156.049,105.923 155.241,105.923 154.433,105.923C154.029,105.923 153.625,105.923 153.221,105.721L153.019,105.721C150.797,105.519 148.373,105.115 146.151,104.509C145.545,104.307 144.939,103.701 144.737,103.095C144.939,103.095 144.737,103.095 144.737,103.095L143.121,102.691C143.929,96.833 143.525,90.772 142.313,84.914C140.899,79.056 138.475,73.4 135.243,68.35L136.455,67.138L136.455,66.936C136.455,66.33 136.657,65.522 137.061,65.118C138.879,63.502 140.697,62.29 142.717,61.078C143.121,60.876 143.525,60.674 143.929,60.472C144.737,60.068 145.343,59.664 146.151,59.26C146.353,59.058 146.555,59.058 146.757,58.856C146.959,58.654 146.757,58.654 146.757,58.452C148.575,57.038 148.979,54.614 147.565,52.796C146.959,51.988 145.747,51.382 144.737,51.382C143.727,51.382 142.717,51.786 141.909,52.392L141.707,52.594C141.505,52.796 141.303,52.998 141.101,52.998C140.495,53.604 139.889,54.21 139.485,54.816C139.283,55.22 138.879,55.422 138.677,55.624C137.263,57.24 135.445,58.856 133.627,60.068C133.223,60.27 132.819,60.472 132.415,60.472C132.213,60.472 131.809,60.472 131.607,60.27L131.405,60.27L129.789,61.28C128.173,59.664 126.355,58.048 124.739,56.432C117.264,50.574 107.972,46.937 98.478,45.927L98.276,44.311L98.276,44.513C97.67,44.109 97.468,43.503 97.266,42.897C97.266,40.675 97.266,38.453 97.67,36.029L97.67,35.827C97.67,35.423 97.872,35.019 97.872,34.615C98.074,33.807 98.074,32.999 98.276,32.191L98.276,30.979C98.478,28.959 96.862,26.939 94.842,26.737C93.63,26.535 92.418,27.141 91.408,28.151C90.6,28.959 90.196,29.969 90.196,30.979L90.196,31.989C90.196,32.797 90.398,33.605 90.6,34.413C90.802,34.817 90.802,35.221 90.802,35.625L90.802,35.827C91.206,38.049 91.206,40.271 91.206,42.695C91.004,43.301 90.802,43.907 90.196,44.311L90.196,44.715L89.994,46.331C87.772,46.533 85.55,46.937 83.126,47.342C73.631,49.362 64.945,54.412 58.279,61.482L57.067,60.674L56.865,60.674C56.663,60.674 56.461,60.876 56.057,60.876C55.653,60.876 55.249,60.674 54.845,60.472C53.027,59.058 51.209,57.442 49.795,55.826C49.593,55.422 49.189,55.22 48.987,55.018C48.381,54.412 47.977,53.806 47.371,53.2C47.169,52.998 46.967,52.998 46.765,52.796L46.563,52.594C45.755,51.988 44.745,51.584 43.735,51.584C42.523,51.584 41.513,51.988 40.907,52.998C39.695,54.816 40.099,57.24 41.715,58.654C41.917,58.654 41.917,58.856 41.917,58.856C41.917,58.856 42.321,59.26 42.523,59.26C43.129,59.664 43.937,60.068 44.745,60.472C45.149,60.674 45.553,60.876 45.957,61.078C47.977,62.29 49.997,63.502 51.613,65.118C52.017,65.522 52.421,66.33 52.219,66.936L52.219,66.734L53.431,67.946C53.229,68.35 53.027,68.552 52.825,68.956C46.563,78.854 43.937,90.57 45.755,102.085L44.139,102.489C44.139,102.691 43.937,102.691 43.937,102.691C43.735,103.297 43.129,103.701 42.523,104.105C40.301,104.711 38.079,105.115 35.655,105.317C35.251,105.317 34.847,105.317 34.443,105.519C33.635,105.519 32.827,105.721 32.019,105.721C31.817,105.721 31.615,105.923 31.211,105.923C31.009,105.923 31.009,105.923 30.807,106.125C28.585,106.529 27.171,108.549 27.575,110.771C27.979,112.589 29.797,113.801 31.615,113.599C32.019,113.599 32.221,113.599 32.625,113.397C32.827,113.397 32.827,113.397 32.827,113.195C32.827,112.993 33.433,113.195 33.635,113.195C34.443,112.993 35.251,112.589 35.857,112.387C36.261,112.185 36.665,111.983 37.069,111.983L37.271,111.983C39.493,111.175 41.513,110.569 43.937,110.165L44.139,110.165C44.745,110.165 45.351,110.367 45.755,110.771C45.957,110.771 45.957,110.973 45.957,110.973L47.775,110.771C50.805,120.063 56.461,128.345 64.339,134.405C66.157,135.819 67.773,137.031 69.793,138.041L68.783,139.455C68.783,139.657 68.985,139.657 68.985,139.657C69.389,140.263 69.389,141.071 69.187,141.677C68.379,143.697 67.167,145.718 65.955,147.536L65.955,147.738C65.753,148.142 65.551,148.344 65.147,148.748C64.743,149.152 64.339,149.96 63.733,150.768C63.531,150.97 63.531,151.172 63.329,151.374C63.329,151.374 63.329,151.576 63.127,151.576C62.117,153.596 62.925,156.02 64.743,157.03C65.147,157.232 65.753,157.434 66.157,157.434C67.773,157.434 69.187,156.424 69.995,155.01C69.995,155.01 69.995,154.808 70.197,154.808C70.197,154.606 70.399,154.404 70.601,154.202C70.803,153.394 71.207,152.788 71.409,151.98L71.813,150.768C72.419,148.546 73.429,146.526 74.44,144.506C74.844,143.899 75.45,143.495 76.056,143.293C76.258,143.293 76.258,143.293 76.258,143.091L77.066,141.475C82.722,143.697 88.58,144.708 94.64,144.708C98.276,144.708 101.912,144.303 105.548,143.293C107.77,142.889 109.992,142.081 112.012,141.475L112.82,142.889C113.022,142.889 113.022,142.889 113.022,143.091C113.628,143.293 114.234,143.697 114.638,144.303C115.648,146.324 116.658,148.344 117.264,150.566L117.264,150.768L117.668,151.98C117.87,152.788 118.072,153.596 118.476,154.202C118.678,154.404 118.678,154.606 118.88,154.808C118.88,154.808 118.88,155.01 119.082,155.01C119.89,156.424 121.304,157.434 122.92,157.434C123.527,157.434 123.931,157.232 124.537,157.03C125.345,156.626 126.153,155.818 126.355,154.808C126.557,153.798 126.557,152.788 126.153,151.778C126.153,151.576 125.951,151.576 125.951,151.576C125.951,151.374 125.749,151.172 125.547,150.97C125.143,150.162 124.739,149.556 124.133,148.95C123.931,148.546 123.729,148.344 123.325,147.94L123.325,147.536C121.91,145.718 120.9,143.697 120.092,141.677C119.89,141.071 119.89,140.263 120.294,139.657C120.294,139.455 120.496,139.455 120.496,139.455L119.89,137.839C130.193,131.577 138.071,121.881 141.707,110.367L143.323,110.569C143.525,110.569 143.525,110.367 143.525,110.367C143.929,109.963 144.535,109.761 145.141,109.761L145.343,109.761C147.565,110.165 149.787,110.771 151.807,111.579L152.009,111.579C152.413,111.781 152.817,111.983 153.221,111.983C154.029,112.387 154.635,112.791 155.443,112.993C155.645,112.993 155.847,113.195 156.251,113.195C156.453,113.195 156.453,113.195 156.655,113.397C157.059,113.599 157.261,113.599 157.665,113.599C159.483,113.599 161.099,112.387 161.705,110.771C161.503,108.549 159.887,106.933 158.069,106.529ZM99.69,100.267L94.236,102.893L88.782,100.267L87.368,94.408L91.206,89.56L97.266,89.56L101.104,94.408L99.69,100.267ZM132.617,87.136C133.627,91.378 133.829,95.62 133.425,99.863L114.234,94.408C112.416,94.004 111.406,92.186 111.81,90.368C112.012,89.762 112.214,89.358 112.618,88.954L127.769,75.218C129.991,78.854 131.607,82.894 132.617,87.136ZM121.708,67.744L105.144,79.46C103.73,80.268 101.71,80.066 100.7,78.652C100.296,78.248 100.094,77.844 100.094,77.238L98.882,56.836C107.77,57.846 115.648,61.684 121.708,67.744ZM85.146,57.442L89.186,56.634L88.176,76.834C88.176,78.652 86.56,80.066 84.742,80.066C84.136,80.066 83.732,79.864 83.126,79.662L66.359,67.744C71.611,62.694 78.076,59.058 85.146,57.442ZM60.501,75.218L75.45,88.55C76.864,89.762 77.066,91.782 75.854,93.196C75.45,93.802 75.046,94.004 74.237,94.206L54.643,99.863C54.037,91.378 56.057,82.692 60.501,75.218ZM57.067,109.357L77.066,105.923C78.682,105.923 80.298,106.933 80.5,108.549C80.702,109.155 80.702,109.963 80.298,110.569L72.621,129.153C65.551,124.507 59.895,117.437 57.067,109.357ZM102.922,134.405C100.094,135.011 97.266,135.415 94.236,135.415C89.994,135.415 85.55,134.607 81.51,133.395L91.408,115.417C92.418,114.205 94.034,113.801 95.448,114.609C96.054,115.013 96.458,115.417 97.064,116.023L106.76,133.597C105.548,133.799 104.336,134.001 102.922,134.405ZM127.567,116.831C124.537,121.679 120.294,125.921 115.446,128.951L107.568,109.963C107.164,108.347 107.972,106.731 109.386,106.125C109.992,105.923 110.598,105.721 111.204,105.721L131.405,109.155C130.395,111.983 129.183,114.609 127.567,116.831Z" style="fill:rgb(42,119,152);fill-rule:nonzero;"/>
    </g>
    <g transform="matrix(1.10837,0,0,0.766994,-136.379,-148.117)">
        <path d="M892.738,2068.6C887.013,2089.7 856.523,2087.93 892.123,2202.36C927.723,2316.78 952.933,2103.64 958.657,2082.54C961.528,2071.95 940.664,2051.07 929.935,2048.8C918.949,2046.48 895.746,2057.51 892.738,2068.6Z" style="fill:rgb(185,59,59);stroke:black;stroke-width:17.49px;"/>
    </g>
    <g transform="matrix(-1.03175,-0.205712,-0.25159,0.742323,2572.72,115.83)">
        <path d="M878.942,2061.98C874.597,2087.82 856.523,2087.93 892.123,2202.36C927.723,2316.78 954.312,2108.38 958.657,2082.54C961.622,2064.91 929.18,2049.66 918.194,2047.34C907.376,2045.05 880.776,2051.08 878.942,2061.98Z" style="fill:rgb(185,59,59);stroke:black;stroke-width:16.94px;"/>
    </g>
</svg>
