<?xml version="1.0" encoding="UTF-8" standalone="no"?>
<!DOCTYPE svg PUBLIC "-//W3C//DTD SVG 1.1//EN" "http://www.w3.org/Graphics/SVG/1.1/DTD/svg11.dtd">
<svg width="100%" height="100%" viewBox="0 0 2481 2481" version="1.1" xmlns="http://www.w3.org/2000/svg" xmlns:xlink="http://www.w3.org/1999/xlink" xml:space="preserve" xmlns:serif="http://www.serif.com/" style="fill-rule:evenodd;clip-rule:evenodd;stroke-linecap:round;stroke-linejoin:round;stroke-miterlimit:1.5;">
    <g transform="matrix(2.71774,0,0,2.71774,-897.588,-6754.16)">
        <path d="M785.06,2504.23L1140.87,2675.58L1228.75,3060.6L982.519,3369.36L587.601,3369.36L341.373,3060.6L429.251,2675.58L785.06,2504.23Z" style="fill:rgb(185,59,59);"/>
    </g>
    <g transform="matrix(3.85631,-4.89505,4.34345,3.42176,-9271.54,-3837.9)">
        <path d="M388.583,1894.03C388.638,1887.31 393.705,1881.89 399.937,1881.89C406.169,1881.89 411.237,1887.31 411.292,1894.03L412.216,2007.44C412.263,2013.2 415.34,2018.43 420.15,2020.93C424.96,2023.43 430.669,2022.76 434.872,2019.21L517.602,1949.29C522.509,1945.14 529.595,1946.03 533.481,1951.29C537.367,1956.55 536.599,1964.21 531.761,1968.45L450.184,2039.93C446.039,2043.56 444.167,2049.42 445.355,2055.04C446.543,2060.66 450.585,2065.06 455.779,2066.39L558.017,2092.6C564.081,2094.15 567.85,2100.69 566.464,2107.25C565.077,2113.8 559.052,2117.93 552.964,2116.49L450.315,2092.23C445.099,2091 439.688,2093.07 436.359,2097.57C433.03,2102.08 432.362,2108.23 434.636,2113.45L479.395,2216.05C482.05,2222.14 479.663,2229.39 474.048,2232.31C468.433,2235.23 461.688,2232.72 458.935,2226.68L412.51,2124.95C410.151,2119.78 405.276,2116.5 399.937,2116.5C394.598,2116.5 389.723,2119.78 387.364,2124.95L340.939,2226.68C338.186,2232.72 331.441,2235.23 325.826,2232.31C320.211,2229.39 317.825,2222.14 320.479,2216.05L365.238,2113.45C367.512,2108.23 366.844,2102.08 363.515,2097.57C360.186,2093.07 354.775,2091 349.56,2092.23L246.91,2116.49C240.822,2117.93 234.798,2113.8 233.411,2107.25C232.024,2100.69 235.794,2094.15 241.857,2092.6L344.095,2066.39C349.289,2065.06 353.332,2060.66 354.52,2055.04C355.708,2049.42 353.835,2043.56 349.691,2039.93L268.114,1968.45C263.275,1964.21 262.508,1956.55 266.393,1951.29C270.279,1946.03 277.366,1945.14 282.272,1949.29L365.002,2019.21C369.206,2022.76 374.914,2023.43 379.725,2020.93C384.535,2018.43 387.611,2013.2 387.658,2007.44L388.583,1894.03Z" style="fill:white;"/>
    </g>
    <g transform="matrix(-1.36704,0.03102,-0.0306462,-1.35057,1715.55,3203.97)">
        <path d="M317.814,1301.58L403.577,1342.88L424.759,1435.68L365.409,1510.11L270.219,1510.11L210.868,1435.68L232.05,1342.88L317.814,1301.58Z" style="fill:rgb(185,59,59);"/>
    </g>
    <g transform="matrix(2.99632,0.085508,-0.0949977,3.32885,-895.739,-8648.34)">
        <path d="M533.803,3030.72C533.803,3030.72 720.737,2970.67 584.396,2812.25" style="fill:none;stroke:white;stroke-width:38.14px;"/>
    </g>
    <g transform="matrix(2.03448,2.52927,-2.6396,2.14965,7494.85,-7120.23)">
        <path d="M533.803,3030.72C533.803,3030.72 720.737,2970.67 584.396,2812.25" style="fill:none;stroke:white;stroke-width:36.22px;"/>
    </g>
    <g transform="matrix(-0.841334,2.83172,-2.90927,-0.87407,10524.9,1568.32)">
        <path d="M533.803,3030.72C533.803,3030.72 720.737,2970.67 584.396,2812.25" style="fill:none;stroke:white;stroke-width:40.39px;"/>
    </g>
    <g transform="matrix(-3.35593,0.802792,-0.753112,-3.19138,6032.69,9941.51)">
        <path d="M533.803,3030.72C533.803,3030.72 720.737,2970.67 584.396,2812.25" style="fill:none;stroke:white;stroke-width:35.95px;"/>
    </g>
    <g transform="matrix(-2.29658,-1.23713,1.48068,-2.7812,-1242.82,10538.9)">
        <path d="M533.803,3030.72C533.803,3030.72 720.737,2970.67 584.396,2812.25" style="fill:none;stroke:white;stroke-width:41.68px;"/>
    </g>
    <g transform="matrix(-0.739551,-3.46215,3.29337,-0.71325,-7964.44,6086.45)">
        <path d="M533.803,3030.72C533.803,3030.72 720.737,2970.67 584.396,2812.25" style="fill:none;stroke:white;stroke-width:34.91px;"/>
    </g>
    <g transform="matrix(2.03965,-2.26727,2.2152,2.01717,-6928,-2875.8)">
        <path d="M533.803,3030.72C533.803,3030.72 720.737,2970.67 584.396,2812.25" style="fill:none;stroke:white;stroke-width:40.09px;"/>
    </g>
    <g id="Layer1">
    </g>
</svg>
